Coordinates
version=1
nRows=8
nColumns=40
inDegrees=yes

Units are S.I. units (second, meters, Newtons, ...)
If the header above contains a line with 'inDegrees', this indicates whether rotational values are in degrees (yes) or radians (no).

endheader
time	pelvis_tilt	pelvis_list	pelvis_rotation	pelvis_tx	pelvis_ty	pelvis_tz	hip_flexion_r	hip_adduction_r	hip_rotation_r	knee_angle_r	knee_angle_r_beta	ankle_angle_r	subtalar_angle_r	mtp_angle_r	hip_flexion_l	hip_adduction_l	hip_rotation_l	knee_angle_l	knee_angle_l_beta	ankle_angle_l	subtalar_angle_l	mtp_angle_l	lumbar_extension	lumbar_bending	lumbar_rotation	arm_flex_r	arm_add_r	arm_rot_r	elbow_flex_r	pro_sup_r	wrist_flex_r	wrist_dev_r	arm_flex_l	arm_add_l	arm_rot_l	elbow_flex_l	pro_sup_l	wrist_flex_l	wrist_dev_l
      3.13500000	    -41.07066427	     11.56326316	     10.97029731	     -0.46140415	      0.60708603	     -0.95773254	    113.51799185	    -29.95033510	     15.60977832	     91.84234376	      1.60295129	     25.52190129	      0.00000000	      0.00000000	     98.44799414	      1.17226346	    -13.55667495	     86.91019276	      1.51686902	     32.62246274	      0.00000000	      0.00000000	    -29.03247149	     -2.42538910	    -19.30736524	      6.93157473	    -48.89168686	     70.60257000	     85.05335792	     87.48852776	      0.00000000	      0.00000000	     -6.33414160	    -53.88284008	     64.74781059	     86.99908528	     85.70026648	      0.00000000	      0.00000000
      3.14000000	    -40.62772622	     12.52130685	     10.23501381	     -0.45931196	      0.60795224	     -0.95659756	    113.21290323	    -29.22527336	     16.14871826	     91.83377118	      1.60280167	     25.50563245	      0.00000000	      0.00000000	     97.50271019	      0.46998311	    -14.42123295	     86.99708923	      1.51838565	     32.98313979	      0.00000000	      0.00000000	    -29.82732335	     -3.55058747	    -19.13023526	      7.14773332	    -48.63245612	     70.88928818	     85.09005131	     87.44041577	      0.00000000	      0.00000000	     -6.10653531	    -54.01331781	     64.80808438	     86.93983840	     85.79248624	      0.00000000	      0.00000000
      3.14500000	    -41.45377097	     11.90025327	     10.07622123	     -0.46014052	      0.60634745	     -0.95570275	    113.72287303	    -28.81136989	     15.50929893	     91.77387537	      1.60175629	     25.44446987	      0.00000000	      0.00000000	     98.62001221	      0.02541646	    -13.84873870	     87.13609870	      1.52081182	     32.84545014	      0.00000000	      0.00000000	    -28.78152733	     -3.31335387	    -18.51513087	      7.17481483	    -48.75189832	     71.26141975	     85.38949489	     87.48837617	      0.00000000	      0.00000000	     -5.68522440	    -53.98151650	     65.50965357	     86.91453649	     85.66963990	      0.00000000	      0.00000000
      3.15000000	    -41.44861952	     11.88139850	      9.62228728	     -0.45932771	      0.60631872	     -0.95445691	    113.48583726	    -28.30003402	     15.24452651	     91.77893837	      1.60184466	     25.45511619	      0.00000000	      0.00000000	     98.54627560	     -0.53341865	    -13.79118733	     87.25338899	      1.52285892	     32.95286924	      0.00000000	      0.00000000	    -28.76973399	     -3.55206151	    -18.06695493	      7.57094110	    -48.68888176	     71.95781758	     85.57142070	     87.58674189	      0.00000000	      0.00000000	     -5.29583706	    -54.03687092	     66.11575412	     86.84475029	     84.99411005	      0.00000000	      0.00000000
      3.15500000	    -41.61163242	     11.68010810	      9.25971585	     -0.45887257	      0.60606333	     -0.95331852	    113.36703879	    -27.84556462	     14.84762170	     91.72736583	      1.60094455	     25.47904937	      0.00000000	      0.00000000	     98.74406600	     -1.00702315	    -13.52801063	     87.37066399	      1.52490576	     32.96969340	      0.00000000	      0.00000000	    -28.51158476	     -3.61622826	    -17.61419286	      7.85971549	    -48.65643865	     72.43779028	     85.78905252	     87.51196596	      0.00000000	      0.00000000	     -4.91658636	    -54.03063028	     66.64081909	     86.68153093	     85.09336984	      0.00000000	      0.00000000
      3.16000000	    -41.66145083	     11.36749728	      9.69783892	     -0.45859395	      0.60643349	     -0.95373365	    113.30507873	    -28.33505112	     14.71731161	     91.77438773	      1.60176523	     25.61083838	      0.00000000	      0.00000000	     98.85180751	     -0.50464354	    -13.22572785	     87.24350814	      1.52268647	     32.81897037	      0.00000000	      0.00000000	    -28.41340332	     -3.12442178	    -17.81130647	      7.91510724	    -48.76567464	     72.45980927	     86.14030146	     87.45187668	      0.00000000	      0.00000000	     -4.80341439	    -53.98198108	     66.49339399	     86.72719098	     85.67975762	      0.00000000	      0.00000000
      3.16500000	    -41.39023274	     11.93952301	      8.60624976	     -0.45662943	      0.60699101	     -0.95143820	    112.79072373	    -27.09914185	     14.75477092	     91.66864687	      1.59991971	     25.67921416	      0.00000000	      0.00000000	     98.21332462	     -1.66635339	    -13.62225456	     87.44910553	      1.52627482	     33.17210391	      0.00000000	      0.00000000	    -28.70315368	     -4.22721169	    -17.18992627	      8.09293059	    -48.39764250	     72.71689631	     85.99771703	     87.45122205	      0.00000000	      0.00000000	     -4.75311404	    -54.03245661	     66.51520097	     86.49604618	     85.78394574	      0.00000000	      0.00000000
      3.17000000	    -41.73866290	     11.42520571	      8.48470040	     -0.45640989	      0.60676894	     -0.95072881	    112.75054276	    -26.85490671	     14.21032195	     91.59832492	      1.59869236	     25.71343192	      0.00000000	      0.00000000	     98.69976586	     -1.84824745	    -13.02798191	     87.47760765	      1.52677228	     33.06085062	      0.00000000	      0.00000000	    -28.07296542	     -3.93223374	    -16.78313788	      8.35629363	    -48.45033742	     73.22209872	     86.21496234	     87.54989064	      0.00000000	      0.00000000	     -4.46294655	    -54.02666581	     66.99654025	     86.52319190	     85.62682341	      0.00000000	      0.00000000
